<?xml version="1.0" encoding="UTF-8"?><svg xmlns="http://www.w3.org/2000/svg" viewBox="0 0 52.48 27.82"><defs><style>.d{fill:#fff;}</style></defs><g id="a"/><g id="b"><g id="c"><g><path class="d" d="M45.12,27.82H1.81c-.96,0-1.81-.86-1.81-1.82V1.82C0,.86,.86,0,1.81,0H45.12c.95,0,1.81,.86,1.81,1.82V26c0,.96-.86,1.82-1.81,1.82h0Z"/><path class="d" d="M48.46,22.46V5.35h2.86c.67,0,1.15,.48,1.15,1.15v14.81c0,.67-.48,1.15-1.15,1.15h-2.86Z"/><polygon class="d" points="43.2 24.28 43.2 24.28 43.2 3.54 3.54 3.54 3.54 24.28 43.2 24.28"/><polygon class="d" points="41.59 21.79 41.59 21.79 41.59 6.12 5.35 6.12 5.35 21.79 41.59 21.79"/></g></g></g></svg>