<?xml version="1.0" encoding="UTF-8"?><svg xmlns="http://www.w3.org/2000/svg" viewBox="0 0 52.38 51.33"><defs><style>.d{fill:#fff;}</style></defs><g id="a"/><g id="b"><g id="c"><g><path class="d" d="M49.13,0h-2c-1.91,0-3.35,1.43-3.35,3.35V47.99c0,1.81,1.43,3.34,3.35,3.34h2c1.82,0,3.25-1.53,3.25-3.34V3.35c0-1.91-1.44-3.35-3.25-3.35h0Z"/><path class="d" d="M34.22,9.18h-2.01c-1.82,0-3.25,1.53-3.25,3.34V47.99c0,1.81,1.43,3.34,3.25,3.34h2.01c1.91,0,3.34-1.53,3.34-3.34V12.52c0-1.82-1.43-3.34-3.34-3.34h0Z"/><path class="d" d="M5.25,29.63H3.25c-1.82,0-3.25,1.53-3.25,3.34v15.01c0,1.81,1.43,3.34,3.25,3.34h2c.86,0,1.72-.38,2.29-.86,.67-.67,1.05-1.53,1.05-2.48v-15.01c0-1.81-1.43-3.34-3.35-3.34h0Z"/><path class="d" d="M22.75,23.23v24.76c0,1.81-1.53,3.34-3.35,3.34h-2c-1.82,0-3.35-1.53-3.35-3.34V23.23c0-1.82,1.53-3.35,3.35-3.35h2c1.82,0,3.35,1.53,3.35,3.35h0Z"/></g></g></g></svg>