<?xml version="1.0" encoding="UTF-8"?><svg xmlns="http://www.w3.org/2000/svg" viewBox="0 0 65.76 46.21"><defs><style>.d{fill:#fff;fill-rule:evenodd;}</style></defs><g id="a"/><g id="b"><g id="c"><g><path class="d" d="M11.08,21.51c-.86,.76-1.53,1.72-2.39,2.58l5.16,5.06c.67-.86,1.44-1.81,2.39-2.68,9.18-9.27,24.18-9.27,33.45,0,.86,.76,1.53,1.72,2.2,2.58l5.16-5.07c-.76-.86-1.53-1.72-2.29-2.49-12.14-12.14-31.54-12.14-43.68,0h0Z"/><path class="d" d="M20.74,31.07c-.86,.86-1.53,1.81-2.29,2.86l4.87,4.69c.48-1.05,1.15-2.1,2.01-2.96,4.2-4.21,11.08-4.21,15.2-.1,.86,.86,1.53,1.91,2.01,2.96l4.78-4.78c-.67-.96-1.34-1.81-2.2-2.67-6.79-6.69-17.59-6.69-24.37,0h0Z"/><path class="d" d="M29.44,38.62c-1.72,1.81-1.72,4.59,0,6.31,1.72,1.72,4.49,1.72,6.21,0,1.72-1.72,1.72-4.49,0-6.31-1.72-1.72-4.49-1.72-6.21,0h0Z"/><path class="d" d="M63.47,12.62C46.64-4.21,19.31-4.21,2.39,12.62c-.86,.96-1.62,1.82-2.39,2.77l4.58,4.59c.77-.95,1.53-1.81,2.39-2.67,14.34-14.34,37.57-14.34,51.9,0,.86,.76,1.53,1.62,2.29,2.48l4.59-4.49c-.67-.86-1.44-1.72-2.3-2.68h0Z"/></g></g></g></svg>